<svg width="43" height="44" viewBox="0 0 43 44" fill="none" xmlns="http://www.w3.org/2000/svg">
<g clip-path="url(#clip0_127_259)">
<path d="M17.0788 21.3624C17.1044 21.3873 17.1193 21.4213 17.12 21.457V23.2776C17.1191 23.314 17.1044 23.3487 17.0788 23.3746C17.066 23.3871 17.0508 23.397 17.0342 23.4037C17.0176 23.4103 16.9998 23.4136 16.9818 23.4134H15.1637C15.1432 23.4136 15.1229 23.4092 15.1044 23.4004C15.0859 23.3915 15.0697 23.3786 15.057 23.3624C15.0367 23.3388 15.0256 23.3087 15.0255 23.2776V21.457C15.0256 21.4377 15.0298 21.4188 15.0378 21.4012C15.0457 21.3837 15.0572 21.368 15.0715 21.3552C15.0969 21.3328 15.1298 21.3207 15.1637 21.3212H16.9818C17 21.3209 17.018 21.3243 17.0347 21.3314C17.0515 21.3385 17.0665 21.3491 17.0788 21.3624ZM16.9818 35.4934H16.2376C16.2045 35.4932 16.1726 35.5052 16.1479 35.5273C16.1332 35.5398 16.1214 35.5554 16.1135 35.573C16.1055 35.5906 16.1015 35.6098 16.1018 35.6291V36.3734C16.1019 36.3915 16.1056 36.4093 16.1127 36.426C16.1197 36.4427 16.1301 36.4577 16.143 36.4703C16.1555 36.4827 16.1702 36.4925 16.1865 36.4991C16.2027 36.5058 16.2201 36.5092 16.2376 36.5091H16.9818C17.0157 36.5097 17.0486 36.4976 17.074 36.4752C17.102 36.4486 17.1186 36.412 17.12 36.3734V35.6291C17.1198 35.5931 17.1059 35.5584 17.0812 35.5321C17.0542 35.5071 17.0187 35.4932 16.9818 35.4934ZM11.0715 29.457H10.3297C10.3107 29.457 10.2918 29.4609 10.2743 29.4684C10.2568 29.4759 10.241 29.4868 10.2279 29.5006C10.2046 29.5267 10.1917 29.5603 10.1915 29.5952V30.3394C10.1927 30.3758 10.2074 30.4103 10.2327 30.4364C10.2455 30.4489 10.2607 30.4588 10.2774 30.4655C10.294 30.4721 10.3118 30.4754 10.3297 30.4752H11.0715C11.092 30.4755 11.1123 30.471 11.1308 30.4622C11.1493 30.4534 11.1655 30.4404 11.1782 30.4243C11.1981 30.4004 11.2092 30.3705 11.2097 30.3394V29.5952C11.2096 29.561 11.1966 29.5281 11.1734 29.5031C11.1605 29.4887 11.1448 29.4772 11.1273 29.4693C11.1098 29.4613 11.0908 29.4572 11.0715 29.457ZM11.0715 14.2376H10.3297C10.3118 14.2373 10.294 14.2406 10.2774 14.2473C10.2607 14.254 10.2455 14.2638 10.2327 14.2764C10.2072 14.3023 10.1924 14.337 10.1915 14.3734V15.1297C10.1922 15.1662 10.2069 15.201 10.2327 15.2267C10.2585 15.2525 10.2933 15.2673 10.3297 15.2679H11.0715C11.108 15.2675 11.1429 15.2527 11.1685 15.2267C11.1823 15.2146 11.1933 15.1997 11.2008 15.1829C11.2084 15.1662 11.2122 15.1481 11.2121 15.1297V14.3734C11.2115 14.34 11.1985 14.3081 11.1758 14.2837C11.163 14.2686 11.147 14.2567 11.1289 14.2487C11.1109 14.2407 11.0913 14.2369 11.0715 14.2376ZM16.9818 8.19154H16.2376C16.2045 8.19133 16.1726 8.20343 16.1479 8.22548C16.1336 8.2383 16.122 8.25399 16.1141 8.27152C16.1062 8.28905 16.102 8.30805 16.1018 8.32729V9.06911C16.1014 9.08613 16.1043 9.10306 16.1106 9.11889C16.1168 9.13473 16.1262 9.14913 16.1382 9.16123C16.1508 9.17528 16.166 9.18661 16.1831 9.19453C16.2002 9.20246 16.2188 9.2068 16.2376 9.20729H16.9818C17.0147 9.20645 17.0463 9.19448 17.0715 9.17336C17.0865 9.16038 17.0986 9.14438 17.1069 9.12642C17.1153 9.10845 17.1197 9.08892 17.12 9.06911V8.32729C17.1191 8.2909 17.1044 8.25623 17.0788 8.23032C17.066 8.21778 17.0508 8.20789 17.0342 8.20123C17.0176 8.19458 16.9998 8.19128 16.9818 8.19154ZM16.9818 29.457H15.6703C15.6361 29.4571 15.6032 29.4701 15.5782 29.4934C15.5635 29.5059 15.5517 29.5215 15.5438 29.5391C15.5358 29.5567 15.5318 29.5759 15.5321 29.5952V30.9067C15.5319 30.9246 15.5352 30.9424 15.5418 30.9591C15.5485 30.9757 15.5584 30.9909 15.5709 31.0037C15.5977 31.0294 15.6332 31.0441 15.6703 31.0449H16.9818C16.9994 31.0449 17.0168 31.0415 17.033 31.0349C17.0492 31.0282 17.064 31.0184 17.0764 31.0061C17.0901 30.9934 17.1011 30.978 17.1086 30.9609C17.1161 30.9438 17.12 30.9254 17.12 30.9067V29.5952C17.1194 29.5587 17.1046 29.5239 17.0789 29.4982C17.0531 29.4724 17.0183 29.4576 16.9818 29.457ZM16.9818 13.6752H15.6703C15.6339 13.6758 15.5991 13.6906 15.5733 13.7163C15.5475 13.7421 15.5328 13.7769 15.5321 13.8134V15.1297C15.5328 15.1662 15.5475 15.201 15.5733 15.2267C15.5991 15.2525 15.6339 15.2673 15.6703 15.2679H16.9818C17.0005 15.2679 17.019 15.264 17.0361 15.2564C17.0532 15.2489 17.0686 15.238 17.0812 15.2243C17.0936 15.2118 17.1034 15.1971 17.11 15.1809C17.1167 15.1646 17.1201 15.1473 17.12 15.1297V13.8061C17.1176 13.7709 17.102 13.7379 17.0764 13.7137C17.0509 13.6894 17.0171 13.6757 16.9818 13.6752ZM24.7879 35.4934H23.8449C23.8123 35.4933 23.7806 35.5044 23.7552 35.5249C23.7405 35.538 23.7288 35.554 23.7209 35.572C23.713 35.59 23.7089 35.6095 23.7091 35.6291V36.5649C23.7088 36.5828 23.7121 36.6006 23.7188 36.6172C23.7255 36.6338 23.7355 36.6489 23.7481 36.6616C23.7608 36.6743 23.7759 36.6843 23.7925 36.691C23.8091 36.6977 23.827 36.701 23.8449 36.7006H24.7879C24.8053 36.7012 24.8226 36.6982 24.8388 36.692C24.8551 36.6857 24.8699 36.6763 24.8824 36.6643C24.8962 36.6516 24.9071 36.6362 24.9146 36.6191C24.9221 36.602 24.926 36.5835 24.9261 36.5649V35.6291C24.9253 35.5934 24.9105 35.5594 24.8849 35.5346C24.8725 35.5212 24.8575 35.5107 24.8408 35.5036C24.8241 35.4965 24.8061 35.493 24.7879 35.4934ZM23.8449 9.20972H24.7879C24.8244 9.2091 24.8591 9.19434 24.8849 9.16856C24.9107 9.14278 24.9255 9.10799 24.9261 9.07154V8.13578C24.9261 8.11775 24.9225 8.09989 24.9155 8.08326C24.9085 8.06663 24.8983 8.05156 24.8855 8.03892C24.8726 8.02628 24.8573 8.01633 24.8406 8.00965C24.8238 8.00297 24.8059 7.9997 24.7879 8.00002H23.8449C23.81 8.0002 23.7763 8.01314 23.7503 8.03639C23.7372 8.04935 23.7267 8.06483 23.7196 8.08191C23.7126 8.09898 23.709 8.1173 23.7091 8.13578V9.06911C23.7086 9.08613 23.7116 9.10306 23.7179 9.11889C23.7241 9.13473 23.7335 9.14913 23.7455 9.16123C23.7574 9.17621 23.7725 9.18833 23.7897 9.19672C23.8069 9.2051 23.8257 9.20955 23.8449 9.20972ZM11.0715 21.7624H10.1358C10.1027 21.7622 10.0707 21.7743 10.0461 21.7964C10.0313 21.8094 10.0195 21.8254 10.0116 21.8434C10.0036 21.8614 9.99968 21.881 10 21.9006V22.8364C9.99995 22.8539 10.0033 22.8713 10.01 22.8875C10.0167 22.9037 10.0264 22.9185 10.0388 22.9309C10.0514 22.9439 10.0665 22.9543 10.0831 22.9613C10.0998 22.9684 10.1177 22.9721 10.1358 22.9721H11.0715C11.0912 22.9725 11.1107 22.9685 11.1287 22.9606C11.1467 22.9526 11.1628 22.9409 11.1758 22.9261C11.1978 22.9014 11.2099 22.8695 11.2097 22.8364V21.9006C11.21 21.8813 11.2061 21.8622 11.1981 21.8446C11.1901 21.827 11.1784 21.8113 11.1637 21.7988C11.1386 21.7755 11.1057 21.7625 11.0715 21.7624ZM25.2218 29.457H23.4037C23.3708 29.4578 23.3392 29.4698 23.314 29.4909C23.299 29.5039 23.2869 29.5199 23.2786 29.5379C23.2702 29.5558 23.2658 29.5754 23.2655 29.5952V31.4158C23.2662 31.4491 23.2791 31.4811 23.3018 31.5055C23.3144 31.5202 23.33 31.532 23.3476 31.5399C23.3652 31.5479 23.3843 31.5519 23.4037 31.5515H25.2218C25.2579 31.5509 25.2923 31.5365 25.318 31.5113C25.3438 31.486 25.3588 31.4518 25.36 31.4158V29.5952C25.3599 29.561 25.3469 29.5281 25.3237 29.5031C25.3108 29.4887 25.2951 29.4772 25.2776 29.4693C25.2601 29.4613 25.2411 29.4572 25.2218 29.457ZM23.4037 15.2558H25.2218C25.2583 15.2554 25.2932 15.2406 25.3188 15.2146C25.3321 15.2022 25.3427 15.1872 25.3498 15.1705C25.3569 15.1538 25.3604 15.1358 25.36 15.1176V13.2994C25.36 13.2633 25.3461 13.2286 25.3212 13.2024C25.2947 13.1763 25.2591 13.1615 25.2218 13.1612H23.4037C23.3854 13.1609 23.3673 13.1643 23.3504 13.1711C23.3335 13.1779 23.3181 13.1881 23.3052 13.201C23.2923 13.2139 23.2822 13.2292 23.2753 13.2461C23.2685 13.2631 23.2651 13.2812 23.2655 13.2994V15.1297C23.2654 15.1473 23.2688 15.1646 23.2755 15.1809C23.2821 15.1971 23.2919 15.2118 23.3043 15.2243C23.3179 15.2358 23.3338 15.2445 23.3508 15.2499C23.3679 15.2554 23.3858 15.2573 23.4037 15.2558ZM33.4618 21.3164H31.6437C31.6257 21.3161 31.6079 21.3194 31.5913 21.3261C31.5746 21.3327 31.5595 21.3426 31.5467 21.3552C31.5211 21.3811 31.5064 21.4158 31.5055 21.4521V23.2727C31.5064 23.3091 31.5211 23.3438 31.5467 23.3697C31.5595 23.3823 31.5746 23.3922 31.5913 23.3988C31.6079 23.4055 31.6257 23.4088 31.6437 23.4085H33.4618C33.4945 23.4085 33.5261 23.3974 33.5515 23.377C33.5665 23.364 33.5786 23.348 33.5869 23.3301C33.5953 23.3121 33.5997 23.2926 33.6 23.2727V21.457C33.5991 21.4206 33.5844 21.3859 33.5588 21.36C33.546 21.3475 33.5308 21.3376 33.5142 21.3309C33.4976 21.3243 33.4798 21.321 33.4618 21.3212V21.3164ZM32.3855 35.4934H31.6437C31.611 35.4933 31.5794 35.5044 31.554 35.5249C31.5389 35.5377 31.5267 35.5537 31.5184 35.5717C31.51 35.5897 31.5056 35.6093 31.5055 35.6291V36.3734C31.5056 36.3926 31.5098 36.4116 31.5178 36.4291C31.5257 36.4467 31.5372 36.4623 31.5515 36.4752C31.5769 36.4976 31.6098 36.5097 31.6437 36.5091H32.3855C32.4029 36.5096 32.4202 36.5067 32.4364 36.5004C32.4526 36.4942 32.4675 36.4848 32.48 36.4727C32.4937 36.4601 32.5047 36.4447 32.5122 36.4276C32.5197 36.4105 32.5236 36.392 32.5237 36.3734V35.6291C32.5229 35.592 32.5082 35.5565 32.4824 35.5297C32.4555 35.5065 32.4211 35.4936 32.3855 35.4934ZM38.2958 29.4497H37.5515C37.5329 29.45 37.5145 29.4541 37.4975 29.4616C37.4804 29.469 37.465 29.4799 37.4521 29.4934C37.4289 29.5194 37.416 29.553 37.4158 29.5879V30.3321C37.4158 30.3508 37.4197 30.3693 37.4272 30.3864C37.4347 30.4035 37.4457 30.4189 37.4594 30.4315C37.4847 30.4544 37.5174 30.4674 37.5515 30.4679H38.2958C38.3156 30.4678 38.3352 30.4634 38.3532 30.455C38.3712 30.4466 38.3871 30.4345 38.4 30.4194C38.4221 30.3958 38.4343 30.3645 38.434 30.3321V29.5879C38.4339 29.5692 38.43 29.5508 38.4225 29.5337C38.415 29.5166 38.404 29.5012 38.3903 29.4885C38.3641 29.4662 38.3302 29.4549 38.2958 29.457V29.4497ZM37.5515 15.2485H38.2958C38.3156 15.2484 38.3352 15.244 38.3532 15.2356C38.3712 15.2273 38.3871 15.2151 38.4 15.2C38.4221 15.1754 38.4342 15.1434 38.434 15.1103V14.3734C38.4332 14.3376 38.4184 14.3037 38.3927 14.2788C38.3804 14.2655 38.3654 14.2549 38.3487 14.2478C38.332 14.2407 38.3139 14.2372 38.2958 14.2376H37.5515C37.5155 14.2376 37.481 14.2519 37.4555 14.2774C37.4301 14.3028 37.4158 14.3373 37.4158 14.3734V15.1297C37.416 15.1646 37.4289 15.1982 37.4521 15.2243C37.48 15.2471 37.5156 15.2584 37.5515 15.2558V15.2485ZM31.6437 9.20972H32.3855C32.4226 9.20895 32.4581 9.19424 32.4849 9.16851C32.4974 9.1557 32.5073 9.14054 32.514 9.1239C32.5206 9.10726 32.5239 9.08946 32.5237 9.07154V8.32729C32.5237 8.30926 32.5201 8.29141 32.5131 8.27478C32.5061 8.25815 32.4959 8.24307 32.483 8.23043C32.4702 8.21779 32.4549 8.20784 32.4382 8.20117C32.4214 8.19449 32.4035 8.19121 32.3855 8.19154H31.6437C31.6257 8.19128 31.6079 8.19458 31.5913 8.20123C31.5746 8.20789 31.5595 8.21778 31.5467 8.23032C31.5213 8.25636 31.5066 8.29096 31.5055 8.32729V9.06911C31.5056 9.1033 31.5186 9.1362 31.5418 9.16123C31.5544 9.17602 31.57 9.18798 31.5876 9.19634C31.6051 9.20469 31.6242 9.20925 31.6437 9.20972ZM32.9552 29.457H31.6437C31.6072 29.4576 31.5724 29.4724 31.5466 29.4982C31.5209 29.5239 31.5061 29.5587 31.5055 29.5952V30.9067C31.5059 30.9432 31.5207 30.978 31.5467 31.0037C31.559 31.017 31.574 31.0276 31.5908 31.0347C31.6075 31.0418 31.6255 31.0452 31.6437 31.0449H32.9552C32.9745 31.0452 32.9936 31.0412 33.0112 31.0333C33.0288 31.0253 33.0445 31.0135 33.057 30.9988C33.0803 30.9738 33.0933 30.9409 33.0934 30.9067V29.5952C33.0925 29.5646 33.0824 29.535 33.0643 29.5103C33.0511 29.494 33.0345 29.4807 33.0157 29.4715C32.9968 29.4623 32.9762 29.4573 32.9552 29.457ZM31.6437 15.2558H32.9552C32.9916 15.2552 33.0264 15.2404 33.0522 15.2146C33.078 15.1888 33.0927 15.1541 33.0934 15.1176V13.8061C33.0927 13.7696 33.078 13.7348 33.0522 13.7091C33.0264 13.6833 32.9916 13.6685 32.9552 13.6679H31.6437C31.6072 13.6685 31.5724 13.6833 31.5466 13.7091C31.5209 13.7348 31.5061 13.7696 31.5055 13.8061V15.1297C31.5054 15.1502 31.5099 15.1704 31.5187 15.1889C31.5275 15.2074 31.5404 15.2236 31.5564 15.2364C31.5824 15.2527 31.6132 15.2596 31.6437 15.2558ZM38.4873 21.7624H37.5515C37.5323 21.7626 37.5133 21.7668 37.4958 21.7747C37.4782 21.7827 37.4625 21.7942 37.4497 21.8085C37.4273 21.8339 37.4152 21.8668 37.4158 21.9006V22.8364C37.4165 22.8697 37.4294 22.9017 37.4521 22.9261C37.4643 22.9406 37.4795 22.9523 37.4967 22.9602C37.5139 22.9682 37.5326 22.9723 37.5515 22.9721H38.4873C38.5245 22.9719 38.5602 22.9571 38.5867 22.9309C38.5991 22.9185 38.6088 22.9037 38.6155 22.8875C38.6222 22.8713 38.6255 22.8539 38.6255 22.8364V21.9006C38.6258 21.8813 38.6218 21.8622 38.6139 21.8446C38.6059 21.827 38.5941 21.8113 38.5794 21.7988C38.5544 21.7755 38.5215 21.7625 38.4873 21.7624ZM28.1503 18.5237H20.4752C20.4421 18.5235 20.4101 18.5356 20.3855 18.5576C20.3707 18.5706 20.3589 18.5867 20.351 18.6047C20.343 18.6227 20.3391 18.6422 20.3394 18.6618V20.4631C20.3392 20.4961 20.3513 20.5281 20.3734 20.5527C20.3859 20.5675 20.4015 20.5792 20.4191 20.5872C20.4367 20.5952 20.4559 20.5991 20.4752 20.5988H23.2655V26.0534C23.2656 26.0875 23.2785 26.1204 23.3018 26.1455C23.3144 26.1602 23.33 26.172 23.3476 26.1799C23.3652 26.1879 23.3843 26.1918 23.4037 26.1915H25.2218C25.2394 26.1919 25.2569 26.1886 25.2731 26.1819C25.2894 26.1753 25.3041 26.1653 25.3164 26.1527C25.3301 26.1401 25.3411 26.1247 25.3486 26.1076C25.3561 26.0905 25.36 26.072 25.36 26.0534V20.6085H28.1503C28.1682 20.6088 28.186 20.6055 28.2027 20.5988C28.2193 20.5922 28.2345 20.5823 28.2473 20.5697C28.272 20.5434 28.2858 20.5088 28.2861 20.4727V18.6715C28.2863 18.6536 28.283 18.6358 28.2764 18.6192C28.2697 18.6025 28.2598 18.5874 28.2473 18.5746C28.2359 18.5595 28.2213 18.5471 28.2045 18.5383C28.1877 18.5295 28.1692 18.5245 28.1503 18.5237ZM73.057 25.1224H67.6267V17.7164C67.6267 17.6737 67.6099 17.6328 67.58 17.6024C67.55 17.572 67.5093 17.5546 67.4667 17.554H65.3527C65.3122 17.5544 65.2733 17.5699 65.2437 17.5976C65.2274 17.6128 65.2144 17.6312 65.2057 17.6516C65.1969 17.6721 65.1925 17.6941 65.1928 17.7164V26.9891C65.1928 27.0304 65.2084 27.0702 65.2364 27.1006C65.2512 27.1167 65.2692 27.1296 65.2892 27.1383C65.3092 27.1471 65.3309 27.1516 65.3527 27.1515H73.057C73.1007 27.1514 73.1425 27.134 73.1734 27.1031C73.2015 27.0718 73.2171 27.0312 73.217 26.9891V25.2921C73.2175 25.2519 73.2028 25.2129 73.1758 25.1831C73.1605 25.1669 73.1421 25.154 73.1217 25.1453C73.1012 25.1365 73.0792 25.132 73.057 25.1321V25.1224ZM64.1261 26.9115C64.1397 26.9351 64.1469 26.9619 64.1469 26.9891C64.1469 27.0163 64.1397 27.0431 64.1261 27.0667C64.1117 27.0897 64.0917 27.1087 64.0679 27.1218C64.0442 27.135 64.0175 27.1419 63.9903 27.1418H61.7624C61.7313 27.1419 61.7009 27.133 61.6746 27.1163C61.6484 27.0995 61.6276 27.0756 61.6146 27.0473L60.703 25.0303H56.0412L55.1467 27.04C55.1359 27.0654 55.1183 27.0872 55.0958 27.1031C55.0683 27.1252 55.0341 27.1372 54.9988 27.137H52.817C52.788 27.1385 52.7591 27.1321 52.7334 27.1185C52.7077 27.1048 52.6863 27.0845 52.6713 27.0595C52.6564 27.0346 52.6485 27.0061 52.6485 26.977C52.6486 26.948 52.6565 26.9195 52.6715 26.8946L57.0473 17.6194C57.0621 17.5881 57.0868 17.5625 57.1176 17.5467C57.1407 17.5343 57.1665 17.5277 57.1927 17.5273H59.6024C59.6377 17.5271 59.672 17.5391 59.6994 17.5612C59.7193 17.5772 59.7358 17.5969 59.7479 17.6194L64.1261 26.9115ZM59.8376 23.0885V23.0618L58.3831 19.8643V19.8449V19.8618L56.9285 23.0667V23.0885H59.8715H59.8376ZM84.2255 19.6388C84.7165 20.4533 84.9646 21.3911 84.9406 22.3418C84.9596 23.2713 84.7222 24.1881 84.2546 24.9915C83.7825 25.7629 83.0925 26.377 82.2715 26.7564C81.3202 27.162 80.2975 27.3733 79.2633 27.3779C78.2292 27.3824 77.2046 27.1802 76.2497 26.7831C75.4302 26.4106 74.7368 25.8074 74.2546 25.0473C73.792 24.2321 73.5466 23.3117 73.542 22.3744C73.5373 21.4371 73.7735 20.5144 74.2279 19.6946C74.6996 18.9238 75.3887 18.3098 76.2085 17.9297C77.1621 17.524 78.1874 17.3134 79.2238 17.3105C80.2601 17.3076 81.2865 17.5124 82.2424 17.9127C83.0584 18.2859 83.7476 18.8891 84.2255 19.6485V19.6388ZM82.4243 22.3418C82.4243 21.3721 82.1455 20.6255 81.5952 20.0994C81.0449 19.5734 80.2473 19.3043 79.234 19.3043C78.2206 19.3043 77.44 19.5734 76.8873 20.1043C76.3346 20.6352 76.0582 21.3867 76.0582 22.3418C76.0582 23.297 76.337 24.0631 76.8873 24.5867C77.4376 25.1103 78.2328 25.3818 79.2461 25.3818C80.2594 25.3818 81.0424 25.1127 81.5952 24.5818C82.1479 24.0509 82.4243 23.3067 82.4243 22.3515V22.3418ZM54.194 19.5103C54.2161 19.4829 54.2281 19.4486 54.2279 19.4134V17.7164C54.2277 17.6942 54.2231 17.6723 54.2144 17.6519C54.2056 17.6315 54.1929 17.613 54.177 17.5976C54.1466 17.5696 54.1068 17.554 54.0655 17.554H44.4243C44.3894 17.554 44.3555 17.565 44.3273 17.5855C44.3073 17.601 44.2911 17.6209 44.2797 17.6435C44.2684 17.6662 44.2623 17.6911 44.2618 17.7164V19.4134C44.2617 19.4341 44.2657 19.4546 44.2736 19.4738C44.2815 19.4929 44.2932 19.5103 44.3079 19.5249C44.3387 19.5558 44.3806 19.5732 44.4243 19.5734H48.0243V26.9891C48.0235 27.0214 48.0338 27.0531 48.0534 27.0788C48.0678 27.101 48.0876 27.1193 48.1108 27.132C48.1341 27.1447 48.1602 27.1514 48.1867 27.1515H50.2982C50.3411 27.1511 50.3821 27.1336 50.4121 27.1031C50.4274 27.0882 50.4395 27.0705 50.4479 27.051C50.4562 27.0314 50.4605 27.0104 50.4606 26.9891V19.5734H54.0606C54.0863 19.5745 54.1119 19.5694 54.1351 19.5584C54.1584 19.5474 54.1786 19.5309 54.194 19.5103ZM96.4776 21.7794H91.8715C91.8279 21.7795 91.786 21.797 91.7552 21.8279C91.7403 21.8428 91.7285 21.8606 91.7206 21.8802C91.7127 21.8998 91.7088 21.9207 91.7091 21.9418V23.52C91.7092 23.5613 91.7247 23.6011 91.7528 23.6315C91.7679 23.6478 91.7863 23.6608 91.8068 23.6695C91.8272 23.6783 91.8493 23.6827 91.8715 23.6824H94.3637V24.9624H94.3491C93.5535 25.2797 92.7009 25.4291 91.8449 25.4012C90.7394 25.4012 89.9055 25.1418 89.3334 24.6303C88.7612 24.1188 88.4946 23.3527 88.4946 22.3467C88.4946 21.3406 88.7612 20.6037 89.2921 20.0824C89.8231 19.5612 90.5843 19.2946 91.5637 19.2946C92.1175 19.2718 92.6685 19.385 93.1685 19.6243C93.5125 19.8121 93.7864 20.1064 93.9491 20.4631C93.9637 20.4921 93.9927 20.5624 94.0194 20.6279C94.033 20.6591 94.0558 20.6854 94.0849 20.7031C94.1162 20.722 94.1527 20.7305 94.1891 20.7273L96.3006 20.4849C96.3243 20.4825 96.3471 20.4747 96.3673 20.4621C96.3875 20.4495 96.4045 20.4324 96.417 20.4121C96.4302 20.3924 96.4389 20.37 96.4422 20.3465C96.4456 20.323 96.4436 20.299 96.4364 20.2764L96.3685 20.0655C96.0754 19.2425 95.5067 18.5462 94.7588 18.0946C93.9321 17.5855 92.8776 17.3285 91.6194 17.3285C90.5848 17.3043 89.5586 17.5191 88.6206 17.9564C87.807 18.3431 87.1262 18.9623 86.6643 19.7358C86.2066 20.5488 85.9755 21.4697 85.9952 22.4024C85.9952 23.9588 86.5188 25.1952 87.5564 26.0776C88.594 26.96 90.0291 27.3964 91.8473 27.3964C92.7177 27.3999 93.5845 27.2858 94.4243 27.057C95.0712 26.8858 95.6919 26.6272 96.2691 26.2885C96.3394 26.2473 96.48 26.1552 96.5673 26.097C96.5889 26.0842 96.6065 26.0658 96.6182 26.0437C96.6327 26.0195 96.6403 25.9918 96.64 25.9637V21.9418C96.64 21.8988 96.6229 21.8574 96.5925 21.827C96.562 21.7965 96.5207 21.7794 96.4776 21.7794ZM106.948 17.6364C106.934 17.6111 106.914 17.5901 106.889 17.5756C106.864 17.5611 106.836 17.5536 106.807 17.554H104.531C104.505 17.5547 104.48 17.5611 104.457 17.5729C104.434 17.5846 104.413 17.6013 104.398 17.6218L101.743 21.3552L99.1055 17.6218C99.0922 17.6029 99.0748 17.5871 99.0546 17.5758C99.029 17.5604 98.9995 17.5528 98.9697 17.554H96.6109C96.5812 17.5542 96.552 17.5626 96.5267 17.5782C96.5014 17.5938 96.4809 17.6161 96.4674 17.6427C96.4539 17.6692 96.4479 17.6989 96.4501 17.7286C96.4524 17.7582 96.4627 17.7867 96.48 17.8109L100.475 23.3188L100.49 23.3382V26.9891C100.489 27.0102 100.493 27.0312 100.501 27.0508C100.509 27.0703 100.521 27.0881 100.536 27.1031C100.567 27.134 100.608 27.1514 100.652 27.1515H102.764C102.787 27.1516 102.811 27.1464 102.832 27.1363C102.853 27.1262 102.872 27.1116 102.887 27.0934C102.912 27.0642 102.925 27.0271 102.924 26.9891V23.3382V23.3237L106.924 17.8109C106.945 17.7876 106.958 17.7585 106.962 17.7274C106.967 17.6963 106.962 17.6646 106.948 17.6364Z" fill="#A335FF"/>
</g>
<defs>
<clipPath id="clip0_127_259">
<rect width="43" height="44" fill="white"/>
</clipPath>
</defs>
</svg>
